<svg width="45" height="40" viewBox="0 0 45 40" fill="none" xmlns="http://www.w3.org/2000/svg">
<circle cx="32.5" cy="20.5" r="12.5" fill="#7B4AE2" fill-opacity="0.2"/>
<path d="M34.6251 23.3437C34.8843 22.2059 35.0101 21.0418 35.0001 19.8749C34.9376 11.6093 28.0938 4.92182 19.8438 4.99995C16.3193 5.03711 12.9205 6.31422 10.2437 8.60721C7.56683 10.9002 5.78294 14.0626 5.205 17.5396C4.62706 21.0165 5.29198 24.586 7.08311 27.6216C8.87423 30.6573 11.6771 32.9652 15.0001 34.1406C15.5653 34.3442 16.1714 34.4084 16.7668 34.3278C17.3621 34.2472 17.9293 34.0242 18.42 33.6776C18.9108 33.331 19.3107 32.8711 19.5858 32.3369C19.8608 31.8028 20.003 31.2101 20.0001 30.6093V29.9999C19.998 29.5069 20.0936 29.0183 20.2813 28.5624C20.469 28.1065 20.7452 27.6923 21.0938 27.3437C21.4424 26.9951 21.8567 26.7189 22.3126 26.5312C22.7685 26.3435 23.257 26.2479 23.7501 26.2499H30.9688C31.8171 26.2505 32.6406 25.9634 33.3046 25.4355C33.9687 24.9077 34.4342 24.1703 34.6251 23.3437V23.3437Z" stroke="#7B4AE2" stroke-linecap="round" stroke-linejoin="round"/>
<path d="M20 13.125C20.6904 13.125 21.25 12.5654 21.25 11.875C21.25 11.1846 20.6904 10.625 20 10.625C19.3096 10.625 18.75 11.1846 18.75 11.875C18.75 12.5654 19.3096 13.125 20 13.125Z" fill="#7B4AE2"/>
<path d="M12.9688 17.1875C13.6591 17.1875 14.2188 16.6279 14.2188 15.9375C14.2188 15.2471 13.6591 14.6875 12.9688 14.6875C12.2784 14.6875 11.7188 15.2471 11.7188 15.9375C11.7188 16.6279 12.2784 17.1875 12.9688 17.1875Z" fill="#7B4AE2"/>
<path d="M12.9688 25.3125C13.6591 25.3125 14.2188 24.7529 14.2188 24.0625C14.2188 23.3721 13.6591 22.8125 12.9688 22.8125C12.2784 22.8125 11.7188 23.3721 11.7188 24.0625C11.7188 24.7529 12.2784 25.3125 12.9688 25.3125Z" fill="#7B4AE2"/>
<path d="M27.0312 17.1875C27.7216 17.1875 28.2812 16.6279 28.2812 15.9375C28.2812 15.2471 27.7216 14.6875 27.0312 14.6875C26.3409 14.6875 25.7812 15.2471 25.7812 15.9375C25.7812 16.6279 26.3409 17.1875 27.0312 17.1875Z" fill="#7B4AE2"/>
</svg>
