<svg width="64" height="64" viewBox="0 0 64 64" fill="none" xmlns="http://www.w3.org/2000/svg">
<path d="M19.4911 24.1421L31.6337 17.1316C31.9376 16.9561 32.3122 16.9561 32.616 17.1316L44.7589 24.1421C45.0625 24.3176 45.25 24.6418 45.25 24.9928V39.0137C45.25 39.3644 45.0625 39.6889 44.7589 39.8646L32.616 46.8751C32.3122 47.0506 31.9376 47.0506 31.6337 46.8751L19.4911 39.8646C19.1873 39.6891 19 39.3647 19 39.0137V24.9928C19.0003 24.6418 19.1875 24.3176 19.4911 24.1421Z" fill="#7B4AE2" fill-opacity="0.2"/>
<path d="M63.6042 30.8541L49.0808 5.58745C48.5532 4.67388 47.5787 4 46.5238 4H17.4765C16.4214 4 15.4466 4.67388 14.9191 5.58745L0.395668 30.7984C-0.131889 31.7123 -0.131889 32.8655 0.395668 33.7793L14.9191 58.839C15.4466 59.7525 16.4214 60.2196 17.4765 60.2196H46.5236C47.5784 60.2196 48.5532 59.7666 49.0805 58.8528L63.6039 33.7522C64.132 32.8389 64.132 31.7677 63.6042 30.8541ZM51.578 43.0041C51.578 43.3756 51.3544 43.7192 51.0324 43.9051L32.5327 54.5786C32.211 54.7643 31.8079 54.7643 31.4862 54.5786L12.9722 43.9051C12.6505 43.7192 12.4253 43.3758 12.4253 43.0041V21.657C12.4253 21.2853 12.6472 20.9419 12.9692 20.756L31.4681 10.0825C31.7899 9.89653 32.1924 9.89653 32.5142 10.0825L51.0294 20.756C51.3514 20.9419 51.578 21.2853 51.578 21.657V43.0041Z" fill="#7B4AE2" fill-opacity="0.5"/>
</svg>
