<svg width="64" height="56" viewBox="0 0 64 56" fill="none" xmlns="http://www.w3.org/2000/svg">
<path d="M53.9428 37.7767C54.4932 37.4607 54.8333 36.8753 54.8353 36.2407L54.8673 25.9524C54.8693 25.3178 55.2095 24.7324 55.7598 24.4164L61.3368 21.2127C61.8869 20.8968 62.5637 20.8979 63.1127 21.2157C63.6618 21.5335 64 22.1197 64 22.7541V41.4586C64 42.0951 63.6595 42.683 63.1075 43L42.0598 55.0892C41.5128 55.4033 40.8403 55.4039 40.2927 55.091L23.7749 45.6436C23.221 45.3272 22.8791 44.7383 22.8789 44.1005V34.6691C22.8789 34.6584 22.8913 34.6513 22.902 34.6566C22.9109 34.662 22.9233 34.6566 22.9233 34.6442V34.6335C22.9233 34.6264 22.9269 34.6193 22.934 34.6158L36.5379 26.8004C36.5504 26.7933 36.545 26.7738 36.5308 26.7738C36.5229 26.7738 36.5166 26.7674 36.5166 26.7595L36.5432 17.5131C36.5458 16.8766 36.2079 16.2874 35.6574 15.9681C35.1069 15.6488 34.4277 15.6481 33.8765 15.9664L23.766 21.7923C23.2168 22.1085 22.5409 22.1085 21.9917 21.7923L11.8492 15.9521C11.2993 15.6355 10.6222 15.6359 10.0727 15.9534C9.52326 16.2709 9.18464 16.8571 9.18426 17.4917V34.2033C9.18469 34.8372 8.84755 35.4234 8.29942 35.7418C7.75128 36.0602 7.07507 36.0627 6.52463 35.7482L0.89603 32.5304C0.341038 32.2133 -0.00106665 31.6228 2.49865e-06 30.9837L0.0497842 1.77396C0.051163 1.14023 0.389785 0.555144 0.938594 0.238241C1.4874 -0.0786611 2.16341 -0.0794622 2.71297 0.236139L21.9935 11.3102C22.5418 11.6251 23.216 11.6251 23.7642 11.3102L43.0394 0.236139C43.5898 -0.0799347 44.2669 -0.0786235 44.8161 0.239579C45.3653 0.557782 45.7031 1.14461 45.7026 1.77929V30.9961C45.7029 31.6322 45.3632 32.22 44.8119 32.5375L34.7174 38.351C34.1655 38.6691 33.826 39.2583 33.8275 39.8953C33.829 40.5323 34.1712 41.1199 34.7245 41.4355L40.2927 44.6054C40.8402 44.9171 41.5118 44.9157 42.0581 44.6018L53.9428 37.7767ZM55.1109 11.568C55.1114 12.2081 55.4559 12.7985 56.0129 13.1138C56.5699 13.4291 57.2535 13.4206 57.8025 13.0916L63.136 9.89152C63.6715 9.5706 63.9995 8.99227 64 8.36792V1.84685C63.9989 1.2071 63.6541 0.617301 63.0972 0.302435C62.5403 -0.012431 61.8571 -0.00380215 61.3084 0.32503L55.9749 3.52512C55.4393 3.84603 55.1114 4.42437 55.1109 5.04872V11.5698V11.568Z" fill="#7B4AE2" fill-opacity="0.5"/>
</svg>
