<svg width="33" height="33" viewBox="0 0 33 33" fill="none" xmlns="http://www.w3.org/2000/svg">
<path d="M30.8594 0.608227L1.73437 8.81135C1.48644 8.87914 1.26544 9.0217 1.10146 9.21962C0.937483 9.41755 0.838504 9.66121 0.818008 9.91742C0.797511 10.1736 0.856493 10.4299 0.986919 10.6514C1.11734 10.8729 1.31287 11.0488 1.54687 11.1551L14.9219 17.4832C15.1839 17.6046 15.3943 17.815 15.5156 18.077L21.8437 31.452C21.9501 31.686 22.126 31.8815 22.3474 32.0119C22.5689 32.1424 22.8252 32.2013 23.0814 32.1808C23.3376 32.1603 23.5813 32.0614 23.7792 31.8974C23.9771 31.7334 24.1197 31.5124 24.1875 31.2645L32.3906 2.13948C32.4528 1.92694 32.4566 1.7016 32.4017 1.48707C32.3469 1.27253 32.2353 1.07671 32.0787 0.920134C31.9221 0.763553 31.7263 0.651976 31.5118 0.597099C31.2973 0.542222 31.0719 0.546065 30.8594 0.608227V0.608227Z" stroke="#7B4AE2" stroke-opacity="0.5" stroke-linecap="round" stroke-linejoin="round"/>
</svg>
