<svg width="64" height="64" viewBox="0 0 64 64" fill="none" xmlns="http://www.w3.org/2000/svg">
<g clip-path="url(#clip0_127_108)">
<mask id="mask0_127_108" style="mask-type:alpha" maskUnits="userSpaceOnUse" x="0" y="0" width="64" height="64">
<path d="M45.2069 63.1513C46.211 63.5425 47.356 63.5173 48.3696 63.0298L61.4948 56.7142C62.8739 56.0505 63.751 54.6545 63.751 53.1232V10.2993C63.751 8.76794 62.8739 7.37211 61.4948 6.70846L48.3696 0.39263C47.0395 -0.247355 45.4828 -0.0905988 44.3156 0.758045C44.1488 0.879277 43.9899 1.01463 43.841 1.1638L18.7141 24.0874L7.76945 15.7795C6.75061 15.0061 5.32552 15.0695 4.37927 15.9302L0.868945 19.1234C-0.288506 20.1763 -0.289833 21.9972 0.866079 23.0518L10.3577 31.7111L0.866079 40.3705C-0.289833 41.4251 -0.288506 43.246 0.868945 44.2989L4.37927 47.4919C5.32552 48.3528 6.75061 48.4161 7.76945 47.6429L18.7141 39.3348L43.841 62.2585C44.2384 62.6562 44.7051 62.9558 45.2069 63.1513ZM47.8229 17.2389L28.7574 31.7111L47.8229 46.1833V17.2389Z" fill="white"/>
</mask>
<g mask="url(#mask0_127_108)">
<path d="M61.5337 6.71826L48.3983 0.393732C46.8779 -0.338329 45.0608 -0.0295293 43.8675 1.16371L0.866604 40.3705C-0.29001 41.4251 -0.28868 43.246 0.869473 44.2989L4.38192 47.4919C5.32877 48.3528 6.75473 48.4161 7.77417 47.6428L59.5572 8.359C61.2944 7.0411 63.7896 8.28016 63.7896 10.4607V10.3082C63.7896 8.77759 62.9128 7.38226 61.5337 6.71826Z" fill="#7B4AE2" fill-opacity="0.5"/>
<path d="M61.5337 56.7038L48.3983 63.0284C46.8779 63.7603 45.0608 63.4515 43.8675 62.2584L0.866604 23.0516C-0.29001 21.997 -0.28868 20.1761 0.869473 19.1232L4.38192 15.9301C5.32877 15.0693 6.75473 15.0059 7.77417 15.7793L59.5572 55.063C61.2944 56.3809 63.7896 55.1419 63.7896 52.9612V53.1139C63.7896 54.6444 62.9128 56.0397 61.5337 56.7038Z" fill="#7B4AE2" fill-opacity="0.5"/>
<path d="M48.3571 63.0335C46.8363 63.7649 45.0191 63.4558 43.8258 62.2625C45.2961 63.7328 47.8102 62.6913 47.8102 60.6119V2.81811C47.8102 0.738723 45.2961 -0.302645 43.8258 1.16771C45.0191 -0.025642 46.8363 -0.334877 48.3571 0.396537L61.4903 6.71237C62.8704 7.37603 63.748 8.77185 63.748 10.3032V53.1272C63.748 54.6585 62.8704 56.0543 61.4903 56.7179L48.3571 63.0335Z" fill="#7B4AE2" fill-opacity="0.5"/>
<path d="M45.207 63.1513C46.2111 63.5423 47.3561 63.5174 48.3694 63.0298L61.4946 56.714C62.874 56.0503 63.751 54.6545 63.751 53.1232V10.2992C63.751 8.76793 62.874 7.37211 61.4948 6.70845L48.3694 0.392632C47.0396 -0.247356 45.4829 -0.0905991 44.3155 0.758044C44.1489 0.879276 43.99 1.01463 43.8408 1.1638L18.7141 24.0874L7.76944 15.7795C6.75062 15.0061 5.32551 15.0695 4.37926 15.9302L0.868945 19.1234C-0.288506 20.1763 -0.289833 21.9972 0.866079 23.0518L10.3577 31.7111L0.866079 40.3706C-0.289833 41.4252 -0.288506 43.2461 0.868945 44.299L4.37926 47.492C5.32551 48.3529 6.75062 48.4161 7.76944 47.6429L18.7141 39.3349L43.8408 62.2586C44.2383 62.6563 44.7052 62.9558 45.207 63.1513ZM47.823 17.2389L28.7575 31.7111L47.823 46.1833V17.2389Z" fill="url(#paint0_linear_127_108)" fill-opacity="0.25"/>
</g>
</g>
<defs>
<linearGradient id="paint0_linear_127_108" x1="31.8755" y1="-2.48391e-07" x2="31.8755" y2="63.4223" gradientUnits="userSpaceOnUse">
<stop stop-color="white"/>
<stop offset="1" stop-color="white" stop-opacity="0"/>
</linearGradient>
<clipPath id="clip0_127_108">
<rect width="64" height="63.5" fill="white"/>
</clipPath>
</defs>
</svg>
